HIERARCHY
ROOT joint_Root
{
	OFFSET 0.0 0.0 0.0
	CHANNELS 6 Xposition Yposition Zposition Zrotation Xrotation Yrotation 
	JOINT Hips
	{
		OFFSET 4.5925 91.4895 -427.239
		CHANNELS 6 Xposition Yposition Zposition Zrotation Xrotation Yrotation 
		JOINT Spine
		{
			OFFSET 15.7357 0.0 0.0
			CHANNELS 6 Xposition Yposition Zposition Zrotation Xrotation Yrotation 
			JOINT Chest
			{
				OFFSET 8.98455 -0.406207 0.0
				CHANNELS 6 Xposition Yposition Zposition Zrotation Xrotation Yrotation 
				JOINT Neck
				{
					OFFSET 16.3773 0.0 0.0
					CHANNELS 6 Xposition Yposition Zposition Zrotation Xrotation Yrotation 
					JOINT Head
					{
						OFFSET 6.45672 0.0 0.0
						CHANNELS 6 Xposition Yposition Zposition Zrotation Xrotation Yrotation 
						End Site
						{
							OFFSET 0.0 0.0 0.0
						}
					}
				}
				JOINT Shoulder_L
				{
					OFFSET 12.9942 -0.242716 4.98039
					CHANNELS 6 Xposition Yposition Zposition Zrotation Xrotation Yrotation 
					JOINT UpperArm_L
					{
						OFFSET 5.34809 0.0 0.0
						CHANNELS 6 Xposition Yposition Zposition Zrotation Xrotation Yrotation 
						JOINT LowerArm_L
						{
							OFFSET 24.3286 1.87007e-05 0.0
							CHANNELS 6 Xposition Yposition Zposition Zrotation Xrotation Yrotation 
							JOINT Hand_L
							{
								OFFSET 22.2916 0.0 0.0
								CHANNELS 6 Xposition Yposition Zposition Zrotation Xrotation Yrotation 
								End Site
								{
									OFFSET 0.0 0.0 0.0
								}
							}
						}
					}
				}
				JOINT Shoulder_R
				{
					OFFSET 12.9945 -0.242716 -4.98039
					CHANNELS 6 Xposition Yposition Zposition Zrotation Xrotation Yrotation 
					JOINT UpperArm_R
					{
						OFFSET -5.34813 0.0 0.0
						CHANNELS 6 Xposition Yposition Zposition Zrotation Xrotation Yrotation 
						JOINT LowerArm_R
						{
							OFFSET -24.3289 0.000322201 0.0
							CHANNELS 6 Xposition Yposition Zposition Zrotation Xrotation Yrotation 
							JOINT Hand_R
							{
								OFFSET -22.2915 -0.000108084 0.0
								CHANNELS 6 Xposition Yposition Zposition Zrotation Xrotation Yrotation 
								End Site
								{
									OFFSET 0.0 0.0 0.0
								}
							}
						}
					}
				}
			}
		}
		JOINT UpperLeg_L
		{
			OFFSET -2.19248 -6.46944 0.0
			CHANNELS 6 Xposition Yposition Zposition Zrotation Xrotation Yrotation 
			JOINT LowerLeg_L
			{
				OFFSET 39.0811 0.0 -1.23785e-05
				CHANNELS 6 Xposition Yposition Zposition Zrotation Xrotation Yrotation 
				JOINT Foot_L
				{
					OFFSET 40.9854 0.0 -1.26872e-05
					CHANNELS 6 Xposition Yposition Zposition Zrotation Xrotation Yrotation 
					JOINT Toes_L
					{
						OFFSET 11.7543 0.0 0.0
						CHANNELS 6 Xposition Yposition Zposition Zrotation Xrotation Yrotation 
						End Site
						{
							OFFSET 0.0 0.0 0.0
						}
					}
				}
			}
		}
		JOINT UpperLeg_R
		{
			OFFSET -2.19251 6.46944 0.0
			CHANNELS 6 Xposition Yposition Zposition Zrotation Xrotation Yrotation 
			JOINT LowerLeg_R
			{
				OFFSET -39.0811 -0.00228153 -0.0401928
				CHANNELS 6 Xposition Yposition Zposition Zrotation Xrotation Yrotation 
				JOINT Foot_R
				{
					OFFSET -40.9854 0.0 0.0
					CHANNELS 6 Xposition Yposition Zposition Zrotation Xrotation Yrotation 
					JOINT Toes_R
					{
						OFFSET -11.7543 0.0 0.0
						CHANNELS 6 Xposition Yposition Zposition Zrotation Xrotation Yrotation 
						End Site
						{
							OFFSET 0.0 0.0 0.0
						}
					}
				}
			}
		}
	}
}
MOTION
Frames:	4
Frame Time:	0.0333333
0.000000 0.000000 0.000000 0.000000 0.000000 -0.000000 135.967000 82.826500 147.950000 101.232000 -30.108400 11.476600 15.735700 0.000005 -0.000001 73.371000 82.826700 -71.771000 8.984550 -0.406207 -0.000000 6.052330 -4.118500 3.415440 16.377300 -0.000001 -0.000001 -0.410858 -5.525660 3.521160 6.456720 -0.000001 -0.000000 -4.737870 -2.972110 2.301260 12.994200 -0.242716 4.980390 -90.308000 1.116460 -74.579900 5.348090 -0.000007 -0.000001 -57.294400 47.930000 -23.438500 24.328600 0.000019 0.000005 6.095190 5.624840 -47.452600 22.291600 -0.000001 0.000005 9.711510 5.503040 -6.656190 12.994500 -0.242716 -4.980390 87.628100 10.506600 -77.204700 -5.348130 -0.000001 -0.000004 -55.407300 40.975900 -15.776500 -24.328900 0.000322 -0.000009 -15.321300 0.240897 -90.900100 -22.291500 -0.000108 -0.000004 30.516100 5.667780 -17.048000 -2.192480 -6.469440 -0.000000 -177.605000 -12.126900 -16.987600 39.081100 -0.000007 -0.000012 -0.133182 0.010102 85.665800 40.985400 -0.000006 -0.000013 3.757220 -6.916650 -39.787300 11.754300 -0.000000 0.000003 -0.008430 -0.091517 -20.303900 -2.192510 6.469440 -0.000001 -168.881000 18.455700 160.280000 -39.081100 -0.002282 -0.040193 -0.051517 0.049402 47.950900 -40.985400 0.000008 0.000006 25.782800 -18.883500 -76.029900 -11.754300 -0.000006 -0.000006 -0.010611 -0.108151 -20.980300
0.000000 0.000000 0.000000 0.000000 0.000000 -0.000000 134.185000 83.667800 150.528000 102.773000 -38.895500 12.072800 15.735700 0.000005 -0.000001 84.197200 83.021000 -82.958000 8.984550 -0.406207 -0.000000 6.138490 -1.424880 2.552080 16.377300 -0.000001 -0.000001 -0.482445 -4.582830 4.680390 6.456720 -0.000001 -0.000000 -4.078110 -3.057800 3.278740 12.994200 -0.242716 4.980390 -90.487900 1.620100 -73.241300 5.348090 -0.000007 -0.000001 -59.501900 52.473100 -8.567920 24.328600 0.000019 0.000005 6.536230 6.007380 -47.591800 22.291600 -0.000001 0.000005 8.144430 5.524190 -7.546620 12.994500 -0.242716 -4.980390 88.444800 8.717110 -79.844900 -5.348130 -0.000001 -0.000004 -54.656800 39.036300 -28.440200 -24.328900 0.000322 -0.000009 -8.786560 1.458930 -99.370100 -22.291500 -0.000108 -0.000004 31.484900 5.669150 -17.251600 -2.192480 -6.469440 -0.000000 -179.841000 -9.592210 -23.030600 39.081100 -0.000007 -0.000012 -0.320283 0.015012 87.318000 40.985400 -0.000006 -0.000013 11.829100 -10.796300 -44.104600 11.754300 -0.000000 0.000003 -0.006878 -0.078621 -19.777300 -2.192510 6.469440 -0.000001 -170.305000 16.049100 164.854000 -39.081100 -0.002282 -0.040193 0.055200 -0.051089 45.471500 -40.985400 0.000008 0.000006 26.383200 -13.052200 -78.814200 -11.754300 -0.000006 -0.000006 -0.009573 -0.100422 -20.664100
0.000000 0.000000 0.000000 0.000000 0.000000 -0.000000 132.358000 85.357700 153.071000 105.523000 -48.308900 12.961800 15.735700 0.000005 -0.000001 98.320100 83.321100 -97.842600 8.984550 -0.406207 -0.000000 5.445810 1.918830 0.862683 16.377300 -0.000001 -0.000001 -0.279850 -3.570490 5.808290 6.456720 -0.000001 -0.000000 -3.507980 -3.321870 4.474680 12.994200 -0.242716 4.980390 -90.538000 1.568250 -71.055800 5.348090 -0.000007 -0.000001 -66.038200 56.395500 9.155420 24.328600 0.000019 0.000005 4.956340 4.201870 -49.808200 22.291600 -0.000001 0.000005 7.679520 5.542280 -8.347680 12.994500 -0.242716 -4.980390 88.932300 6.862320 -81.137400 -5.348130 -0.000001 -0.000004 -54.359800 37.851800 -39.210900 -24.328900 0.000322 -0.000009 -5.436820 1.601170 -106.369000 -22.291500 -0.000108 -0.000004 32.232500 5.671670 -17.650600 -2.192480 -6.469440 -0.000000 179.036000 -7.288060 -27.632600 39.081100 -0.000007 -0.000012 -0.285036 0.030383 83.917300 40.985400 -0.000006 -0.000013 11.904700 -12.985500 -49.414900 11.754300 -0.000000 0.000003 -0.005394 -0.065240 -19.231500 -2.192510 6.469440 -0.000001 -172.827000 13.222500 169.455000 -39.081100 -0.002282 -0.040193 0.031983 -0.033634 40.479500 -40.985400 0.000008 0.000006 26.408900 -5.300110 -79.731100 -11.754300 -0.000006 -0.000006 -0.008397 -0.091239 -20.288800
0.000000 0.000000 0.000000 0.000000 0.000000 -0.000000 130.402000 87.324600 155.889000 109.647000 -56.429900 15.103600 15.735700 0.000005 -0.000001 110.226000 83.444000 -110.550000 8.984550 -0.406207 -0.000000 4.561790 4.534310 -0.826542 16.377300 -0.000001 -0.000001 -0.020010 -2.299830 6.144060 6.456720 -0.000001 -0.000000 -2.995380 -3.311130 5.143320 12.994200 -0.242716 4.980390 -90.068400 0.180932 -69.253600 5.348090 -0.000007 -0.000001 -77.159300 55.055800 27.169600 24.328600 0.000019 0.000005 3.023030 2.523910 -50.177000 22.291600 -0.000001 0.000005 7.161130 5.545830 -8.510650 12.994500 -0.242716 -4.980390 89.414400 4.372240 -82.365300 -5.348130 -0.000001 -0.000004 -54.240800 36.715400 -47.384300 -24.328900 0.000322 -0.000009 -4.332630 1.751700 -111.973000 -22.291500 -0.000108 -0.000004 32.118200 5.668770 -17.190300 -2.192480 -6.469440 -0.000000 178.136000 -4.658450 -30.186000 39.081100 -0.000007 -0.000012 -0.197994 0.049216 76.042600 40.985400 -0.000006 -0.000013 12.947700 -15.266500 -53.580400 11.754300 -0.000000 0.000003 -0.006011 -0.070946 -19.464200 -2.192510 6.469440 -0.000001 -175.851000 9.397020 174.173000 -39.081100 -0.002282 -0.040193 0.016720 -0.020207 33.600600 -40.985400 0.000008 0.000006 25.595000 1.104090 -78.434700 -11.754300 -0.000006 -0.000006 -0.009710 -0.101455 -20.706400
